<?xml version="1.0" standalone="no"?>
<!DOCTYPE svg PUBLIC "-//W3C//DTD SVG 20010904//EN"
 "http://www.w3.org/TR/2001/REC-SVG-20010904/DTD/svg10.dtd">
<svg version="1.0" xmlns="http://www.w3.org/2000/svg"
 width="700.000000pt" height="700.000000pt" viewBox="0 0 700.000000 700.000000"
 preserveAspectRatio="xMidYMid meet">
<metadata>
Created by potrace 1.11, written by Peter Selinger 2001-2013
</metadata>
<g transform="translate(0.000000,700.000000) scale(0.100000,-0.100000)"
fill="#000000" stroke="none">
<path d="M497 5032 c-71 -36 -102 -87 -102 -171 0 -54 5 -73 24 -102 31 -45
79 -79 123 -86 18 -3 252 -6 521 -6 335 -1 487 -4 488 -11 1 -6 2 -576 3
-1266 1 -690 6 -1273 10 -1296 4 -23 20 -57 36 -76 90 -109 256 -91 322 35
l22 42 1 1285 0 1285 2255 1 c2469 1 2291 -3 2352 58 91 92 69 249 -44 308
l-43 22 -2960 1 -2960 1 -48 -24z"/>
<path d="M3255 4271 c-44 -13 -83 -42 -111 -82 l-29 -42 -3 -1025 -2 -1024 26
-47 c27 -51 91 -100 134 -102 112 -7 176 30 217 124 16 36 19 2011 3 2068 -11
40 -56 95 -96 115 -30 16 -108 24 -139 15z"/>
<path d="M5330 4272 c-113 -9 -270 -54 -400 -114 -147 -69 -344 -238 -443
-381 -50 -72 -125 -221 -150 -297 -15 -45 -40 -160 -51 -233 -13 -84 -6 -266
15 -364 6 -29 10 -54 9 -55 -2 -8 51 -152 79 -212 104 -225 310 -436 536 -549
192 -95 411 -136 625 -115 122 11 136 14 265 55 336 107 626 398 735 737 45
138 58 232 55 386 -3 151 -7 179 -32 270 -85 310 -253 535 -528 711 -96 61
-280 129 -403 150 -66 11 -243 17 -312 11z m250 -396 c14 -3 39 -8 55 -12 57
-12 160 -57 227 -100 240 -154 371 -412 355 -698 -26 -460 -436 -790 -897
-722 -69 10 -127 29 -193 62 -16 8 -33 14 -38 14 -11 0 -133 84 -173 120 -87
78 -191 249 -220 365 -91 356 60 713 378 889 62 34 187 76 246 83 25 3 46 6
48 8 5 5 185 -3 212 -9z"/>
</g>
</svg>
