<?xml version="1.0" encoding="utf-8"?>
<svg version="1.1" id="Layer_1" xmlns="http://www.w3.org/2000/svg" xmlns:xlink="http://www.w3.org/1999/xlink" x="0px" y="0px"
	 width="430.6px" height="74.5px" viewBox="0 0 430.6 74.5" style="enable-background:new 0 0 430.6 74.5;" xml:space="preserve">
<g>
	<g transform="translate(584.984375 468.4519907575952) scale(1 1) rotate(0 0 0)">
		<g style="enable-background:new    ;">
			<path style="fill:#F0F0F0;" d="M-422.1-444.7h-12.3v34.2h-6.4v-34.2h-12.4v-5.4h31.1V-444.7z"/>
			<path style="fill:#F0F0F0;" d="M-417.9-433.4c0.9-1.8,1.9-3.2,3.2-4.2c1.2-1,2.7-1.5,4.5-1.5c0.6,0,1.2,0.1,1.7,0.2
				c0.5,0.1,1,0.3,1.4,0.6l-0.4,4.4c-0.1,0.3-0.2,0.5-0.3,0.6c-0.2,0.1-0.4,0.2-0.6,0.2c-0.3,0-0.7-0.1-1.2-0.2
				c-0.5-0.1-1.1-0.2-1.6-0.2c-0.8,0-1.6,0.1-2.2,0.4s-1.2,0.6-1.7,1c-0.5,0.5-0.9,1-1.3,1.7s-0.7,1.4-1.1,2.3v17.4h-5.9v-28h3.4
				c0.6,0,1.1,0.1,1.3,0.3s0.4,0.6,0.5,1.2L-417.9-433.4z"/>
			<path style="fill:#F0F0F0;" d="M-378.4-438.6l-15.4,36c-0.2,0.4-0.4,0.8-0.7,1s-0.7,0.4-1.3,0.4h-4.4l5.2-11.2l-11.4-26.1h5.1
				c0.5,0,0.9,0.1,1.1,0.3c0.3,0.2,0.5,0.5,0.6,0.8l6.7,15.9c0.2,0.5,0.3,0.9,0.5,1.4c0.1,0.4,0.3,0.9,0.4,1.4
				c0.1-0.5,0.3-0.9,0.4-1.4c0.1-0.5,0.3-0.9,0.5-1.4l6.4-15.9c0.1-0.3,0.3-0.6,0.6-0.8c0.3-0.2,0.6-0.3,1-0.3H-378.4z"/>
			<path style="fill:#F0F0F0;" d="M-355.1-447c0,0.5-0.1,1-0.3,1.5c-0.2,0.5-0.5,0.9-0.9,1.2c-0.4,0.4-0.8,0.6-1.3,0.9
				c-0.5,0.2-1,0.3-1.6,0.3c-0.5,0-1-0.1-1.5-0.3c-0.5-0.2-0.9-0.5-1.2-0.9c-0.3-0.4-0.6-0.8-0.8-1.2c-0.2-0.5-0.3-1-0.3-1.5
				c0-0.5,0.1-1.1,0.3-1.5c0.2-0.5,0.5-0.9,0.8-1.2s0.8-0.6,1.2-0.9c0.5-0.2,1-0.3,1.5-0.3c0.5,0,1.1,0.1,1.6,0.3
				c0.5,0.2,0.9,0.5,1.3,0.9c0.4,0.4,0.7,0.8,0.9,1.2C-355.2-448.1-355.1-447.6-355.1-447z M-356.1-438.6v28h-5.9v-28H-356.1z"/>
			<path style="fill:#F0F0F0;" d="M-339.7-410.1c-2.3,0-4.1-0.7-5.4-2c-1.3-1.3-1.9-3.2-1.9-5.5v-16.3h-3.1c-0.3,0-0.6-0.1-0.9-0.3
				c-0.2-0.2-0.4-0.5-0.4-0.9v-2.4l4.5-0.7l1.3-8.1c0.1-0.3,0.2-0.6,0.5-0.8c0.2-0.2,0.5-0.3,0.9-0.3h3v9.2h7.8v4.3h-7.8v15.9
				c0,1,0.2,1.8,0.7,2.3s1.2,0.8,2,0.8c0.5,0,0.9-0.1,1.2-0.2c0.3-0.1,0.6-0.2,0.9-0.4c0.2-0.1,0.4-0.3,0.6-0.4
				c0.2-0.1,0.3-0.2,0.5-0.2c0.3,0,0.6,0.2,0.8,0.5l1.8,2.9c-0.9,0.8-2,1.4-3.2,1.9C-337.1-410.3-338.4-410.1-339.7-410.1z"/>
			<path style="fill:#F0F0F0;" d="M-302.8-439c2.1,0,3.9,0.3,5.6,1c1.7,0.7,3.1,1.6,4.3,2.9c1.2,1.2,2.1,2.8,2.7,4.5
				c0.6,1.8,1,3.8,1,6c0,2.2-0.3,4.2-1,6c-0.6,1.8-1.6,3.3-2.7,4.5s-2.6,2.2-4.3,2.9s-3.5,1-5.6,1c-2.1,0-4-0.3-5.6-1
				s-3.1-1.6-4.3-2.9s-2.1-2.8-2.7-4.5c-0.6-1.8-1-3.8-1-6c0-2.2,0.3-4.2,1-6c0.6-1.8,1.6-3.3,2.7-4.5c1.2-1.2,2.6-2.2,4.3-2.9
				C-306.8-438.7-304.9-439-302.8-439z M-302.8-414.8c2.5,0,4.4-0.8,5.6-2.5c1.2-1.7,1.9-4.1,1.9-7.3c0-3.1-0.6-5.6-1.9-7.3
				c-1.2-1.7-3.1-2.6-5.6-2.6c-2.6,0-4.5,0.9-5.7,2.6c-1.2,1.7-1.9,4.1-1.9,7.3c0,3.1,0.6,5.6,1.9,7.3
				C-307.3-415.6-305.4-414.8-302.8-414.8z"/>
			<path style="fill:#F0F0F0;" d="M-278.1-434.9c0.6-0.6,1.2-1.2,1.9-1.7c0.6-0.5,1.3-0.9,2.1-1.3s1.5-0.6,2.3-0.9
				c0.8-0.2,1.7-0.3,2.7-0.3c1.5,0,2.9,0.3,4,0.8s2.1,1.2,2.9,2.2c0.8,0.9,1.4,2.1,1.8,3.4c0.4,1.3,0.6,2.7,0.6,4.3v17.8h-5.9v-17.8
				c0-1.9-0.4-3.3-1.3-4.4c-0.9-1-2.2-1.6-4-1.6c-1.3,0-2.5,0.3-3.7,0.9s-2.2,1.4-3.2,2.5v20.4h-5.9v-28h3.6c0.8,0,1.3,0.4,1.5,1.1
				L-278.1-434.9z"/>
			<path style="fill:#F0F0F0;" d="M-246.8-451.2v40.6h-5.9v-40.6H-246.8z"/>
			<path style="fill:#F0F0F0;" d="M-232.3-447c0,0.5-0.1,1-0.3,1.5c-0.2,0.5-0.5,0.9-0.9,1.2c-0.4,0.4-0.8,0.6-1.3,0.9
				c-0.5,0.2-1,0.3-1.6,0.3c-0.5,0-1-0.1-1.5-0.3c-0.5-0.2-0.9-0.5-1.2-0.9c-0.3-0.4-0.6-0.8-0.8-1.2c-0.2-0.5-0.3-1-0.3-1.5
				c0-0.5,0.1-1.1,0.3-1.5c0.2-0.5,0.5-0.9,0.8-1.2s0.8-0.6,1.2-0.9c0.5-0.2,1-0.3,1.5-0.3c0.5,0,1.1,0.1,1.6,0.3
				c0.5,0.2,0.9,0.5,1.3,0.9c0.4,0.4,0.7,0.8,0.9,1.2C-232.4-448.1-232.3-447.6-232.3-447z M-233.3-438.6v28h-5.9v-28H-233.3z"/>
			<path style="fill:#F0F0F0;" d="M-220.4-434.9c0.6-0.6,1.2-1.2,1.9-1.7c0.6-0.5,1.3-0.9,2.1-1.3s1.5-0.6,2.3-0.9
				c0.8-0.2,1.7-0.3,2.7-0.3c1.5,0,2.9,0.3,4,0.8s2.1,1.2,2.9,2.2c0.8,0.9,1.4,2.1,1.8,3.4c0.4,1.3,0.6,2.7,0.6,4.3v17.8h-5.9v-17.8
				c0-1.9-0.4-3.3-1.3-4.4s-2.2-1.6-4-1.6c-1.3,0-2.5,0.3-3.7,0.9s-2.2,1.4-3.2,2.5v20.4h-5.9v-28h3.6c0.8,0,1.3,0.4,1.5,1.1
				L-220.4-434.9z"/>
			<path style="fill:#F0F0F0;" d="M-190.8-424.1c0.1,1.6,0.3,3,0.7,4.1c0.4,1.2,1,2.1,1.7,2.9s1.5,1.3,2.5,1.7
				c1,0.4,2.1,0.6,3.3,0.6c1.2,0,2.1-0.1,3-0.4c0.8-0.3,1.6-0.6,2.2-0.9c0.6-0.3,1.2-0.6,1.6-0.9c0.4-0.3,0.8-0.4,1.2-0.4
				c0.5,0,0.8,0.2,1.1,0.5l1.7,2.2c-0.7,0.8-1.5,1.5-2.4,2.1c-0.9,0.6-1.8,1-2.8,1.4c-1,0.4-2,0.6-3,0.8s-2.1,0.2-3,0.2
				c-1.9,0-3.7-0.3-5.4-1c-1.7-0.6-3.1-1.6-4.3-2.9s-2.2-2.8-2.9-4.7c-0.7-1.9-1-4-1-6.5c0-1.9,0.3-3.8,0.9-5.4
				c0.6-1.7,1.5-3.1,2.6-4.4c1.1-1.2,2.5-2.2,4.2-3c1.6-0.7,3.5-1.1,5.6-1.1c1.7,0,3.3,0.3,4.8,0.8c1.5,0.6,2.7,1.4,3.8,2.5
				c1.1,1.1,1.9,2.4,2.5,4c0.6,1.6,0.9,3.3,0.9,5.3c0,0.9-0.1,1.5-0.3,1.8c-0.2,0.3-0.6,0.5-1.1,0.5H-190.8z M-176.7-427.7
				c0-1-0.1-1.9-0.4-2.8c-0.3-0.9-0.7-1.6-1.2-2.2s-1.2-1.1-2-1.5s-1.8-0.5-2.8-0.5c-2.1,0-3.8,0.6-5.1,1.8c-1.2,1.2-2,2.9-2.3,5.2
				H-176.7z"/>
			<path style="fill:#F0F0F0;" d="M-165.8-414c0-0.5,0.1-1,0.3-1.5c0.2-0.5,0.5-0.9,0.8-1.2c0.3-0.3,0.8-0.6,1.2-0.8
				c0.5-0.2,1-0.3,1.5-0.3c0.5,0,1,0.1,1.5,0.3s0.9,0.5,1.2,0.8c0.3,0.3,0.6,0.8,0.8,1.2c0.2,0.5,0.3,1,0.3,1.5
				c0,0.5-0.1,1.1-0.3,1.5c-0.2,0.5-0.5,0.9-0.8,1.2c-0.3,0.3-0.7,0.6-1.2,0.8c-0.5,0.2-1,0.3-1.5,0.3c-0.5,0-1.1-0.1-1.5-0.3
				c-0.5-0.2-0.9-0.5-1.2-0.8c-0.3-0.3-0.6-0.8-0.8-1.2C-165.8-412.9-165.8-413.4-165.8-414z M-159.2-450.1v15.7
				c0,1.6-0.1,3.3-0.2,4.8c-0.1,1.6-0.3,3.3-0.6,5.1h-4c-0.3-1.8-0.5-3.5-0.6-5.1c-0.1-1.6-0.2-3.2-0.2-4.8v-15.7H-159.2z"/>
		</g>
	</g>
</g>
<polygon style="fill:#F0F0F0;" points="113.3,6 98.6,11.4 102.6,14.4 51.4,74.3 60.6,74.4 108.3,18.7 112.1,21.6 "/>
<path style="fill:#F0F0F0;" d="M61.8,37.5l3.3,2.5L37.5,72.2c1.1-0.3,2.3-0.5,3.5-0.5c1.4,0,2.6,0.5,3.4,1.3l25.3-29.6l3.1,2.3
	l1-12.7L61.8,37.5z"/>
<path style="fill:#F79938;" d="M108.5,21.9l-3.2,3.7c6,5.1,9.8,12.7,9.8,21.1c0,8-4.6,17.3-11.3,22.9H75.5c-0.1,1-0.6,1.9-1.4,2.8
	c-0.6,0.6-1.1,1.3-1.5,2h32c0.4,0,0.7-0.1,1.1-0.3c0.2-0.1,0.3-0.2,0.4-0.3c8.1-6.4,13.8-17.6,13.8-27.2
	C120,36.8,115.5,27.9,108.5,21.9z"/>
<polygon style="fill:#F79938;" points="67.8,74.5 74.8,74.5 89.1,57.8 92,60 92.9,48.2 81.8,52.3 84.8,54.6 "/>
<path style="fill:#F0F0F0;" d="M7.9,30.5"/>
<path style="fill:#F0F0F0;" d="M7.9,38.1"/>
<path style="fill:#F0F0F0;" d="M0,48.9c0,5.8,2.4,12.6,6.8,17.3c4.1,4.4,9.5,7.4,15.4,8.2c0.6,0.1,0.9,0,1.4,0h30.8l4.1-5H24.7
	c-0.4,0-0.6,0.1-1,0.1c-10.6-0.9-18.9-10-18.9-20.7c0-3.9,1.1-7.6,3-10.7c0,0,5-9.6,24-9.2c0.2,0,0.5-0.1,0.7-0.2
	c0.6-0.3,1-0.9,1.2-1.6C36.5,14.2,48.3,4.8,61.5,4.8c9.7,0,18.6,4.8,23.9,13c0.4,0.7,1.2,1.1,2,1.1c2.6,0,5.2,0.4,7.6,1.1l3.4-4
	c-3.1-1.1-6.3-1.8-9.7-1.9C82.5,5.3,72.4,0,61.5,0c-7.6,0-15.1,2.7-21,7.5c-4.7,3.8-8.9,11-10.5,16.5C7.9,24,0.9,37.2,0,48.9z"/>
</svg>
